<mxfile host="app.diagrams.net" agent="Mozilla/5.0 (Macintosh; Intel Mac OS X 10_15_7) AppleWebKit/537.36 (KHTML, like Gecko) Chrome/131.0.0.0 Safari/537.36" version="26.0.6" pages="2">
  <diagram name="Signal" id="ZCJV9d4OVnHQ0nTeLDJO">
    <mxGraphModel dx="1306" dy="801" grid="0" gridSize="10" guides="1" tooltips="1" connect="1" arrows="1" fold="1" page="1" pageScale="1" pageWidth="850" pageHeight="1100" math="0" shadow="0">
      <root>
        <mxCell id="0" />
        <mxCell id="1" parent="0" />
        <mxCell id="Ub0qSyCo7bimtf3bLuie-5" value="&lt;p style=&quot;margin:0px;margin-top:4px;text-align:center;&quot;&gt;&lt;b&gt;Signal&lt;/b&gt;&lt;/p&gt;&lt;hr size=&quot;1&quot; style=&quot;border-style:solid;&quot;&gt;&lt;p style=&quot;margin:0px;margin-left:4px;&quot;&gt;+ subs: undefined&lt;br&gt;&lt;br&gt;&lt;/p&gt;&amp;nbsp;+ subsTail: undefined&lt;br&gt;&lt;br class=&quot;Apple-interchange-newline&quot;&gt;&amp;nbsp;+ subVersion: -1&lt;div&gt;&lt;hr size=&quot;1&quot; style=&quot;border-style:solid;&quot;&gt;&lt;p style=&quot;margin:0px;margin-left:4px;&quot;&gt;+ get(): void&lt;br&gt;&lt;br&gt;+ set(): void&lt;/p&gt;&lt;/div&gt;" style="verticalAlign=top;align=left;overflow=fill;html=1;whiteSpace=wrap;" parent="1" vertex="1">
          <mxGeometry x="91" y="78" width="215" height="173" as="geometry" />
        </mxCell>
      </root>
    </mxGraphModel>
  </diagram>
  <diagram id="wGVnZBvqeddYok9E1Rf5" name="Link">
    <mxGraphModel dx="1306" dy="801" grid="0" gridSize="10" guides="1" tooltips="1" connect="1" arrows="1" fold="1" page="1" pageScale="1" pageWidth="1169" pageHeight="1654" math="0" shadow="0">
      <root>
        <mxCell id="0" />
        <mxCell id="1" parent="0" />
        <mxCell id="nSV0fRQaAkMYEmg0EWtH-1" value="&lt;p style=&quot;margin:0px;margin-top:4px;text-align:center;&quot;&gt;&lt;i&gt;&amp;lt;&amp;lt;Interface&amp;gt;&amp;gt;&lt;/i&gt;&lt;br&gt;&lt;b&gt;Link&lt;/b&gt;&lt;/p&gt;&lt;hr size=&quot;1&quot; style=&quot;border-style:solid;&quot;&gt;&lt;p style=&quot;margin:0px;margin-left:4px;&quot;&gt;&lt;br&gt;&lt;/p&gt;&lt;p style=&quot;margin:0px;margin-left:4px;&quot;&gt;+ dep: Dependency&lt;/p&gt;&lt;p style=&quot;margin:0px;margin-left:4px;&quot;&gt;&lt;br&gt;+ sub: Subscriber &amp;amp; ({} | IEffect | Dependency)&lt;/p&gt;&lt;br&gt;&amp;nbsp;+ prevSubOrUpdate: Link | undefined&lt;span style=&quot;white-space: pre;&quot;&gt;&#x9;&lt;/span&gt;&lt;div&gt;&lt;br&gt;&amp;nbsp;+ nextSub: Link | undefined&lt;/div&gt;&lt;br&gt;&amp;nbsp;+ nextDep: Link | undefined&lt;div&gt;&amp;nbsp;&lt;br&gt;&amp;nbsp;+ nextPropagateOrReleased: Link | undefined&lt;/div&gt;&lt;div&gt;&lt;br&gt;&lt;hr size=&quot;1&quot; style=&quot;border-style:solid;&quot;&gt;&lt;p style=&quot;margin:0px;margin-left:4px;&quot;&gt;&lt;br&gt;&lt;/p&gt;&lt;/div&gt;" style="verticalAlign=top;align=left;overflow=fill;html=1;whiteSpace=wrap;" vertex="1" parent="1">
          <mxGeometry x="297" y="257" width="308" height="266" as="geometry" />
        </mxCell>
        <mxCell id="nSV0fRQaAkMYEmg0EWtH-2" style="edgeStyle=orthogonalEdgeStyle;rounded=0;orthogonalLoop=1;jettySize=auto;html=1;exitX=0.5;exitY=1;exitDx=0;exitDy=0;" edge="1" parent="1" source="nSV0fRQaAkMYEmg0EWtH-1" target="nSV0fRQaAkMYEmg0EWtH-1">
          <mxGeometry relative="1" as="geometry" />
        </mxCell>
        <mxCell id="H9TVhaISFKtpRXAber_u-1" value="&lt;p style=&quot;margin:0px;margin-top:4px;text-align:center;&quot;&gt;&lt;i&gt;&amp;lt;&amp;lt;Namespace&amp;gt;&amp;gt;&lt;/i&gt;&lt;br&gt;&lt;b&gt;Link&lt;/b&gt;&lt;/p&gt;&lt;hr size=&quot;1&quot; style=&quot;border-style:solid;&quot;&gt;&lt;p style=&quot;margin:0px;margin-left:4px;&quot;&gt;&lt;br&gt;&lt;/p&gt;&lt;div&gt;&lt;hr size=&quot;1&quot; style=&quot;border-style:solid;&quot;&gt;&lt;p style=&quot;margin:0px;margin-left:4px;&quot;&gt;&lt;br&gt;&amp;nbsp;+&amp;nbsp;&lt;span style=&quot;font-family: Menlo, Monaco, &amp;quot;Courier New&amp;quot;, monospace; white-space: pre; color: rgb(239, 176, 128); font-weight: bold;&quot;&gt;get&lt;/span&gt;&lt;span style=&quot;background-color: rgb(24, 24, 24); color: rgb(214, 214, 221); font-family: Menlo, Monaco, &amp;quot;Courier New&amp;quot;, monospace; white-space: pre;&quot;&gt;(&lt;/span&gt;&lt;span style=&quot;color: rgb(214, 214, 221); font-family: Menlo, Monaco, &amp;quot;Courier New&amp;quot;, monospace; white-space: pre; font-style: italic;&quot;&gt;dep&lt;/span&gt;&lt;span style=&quot;background-color: rgb(24, 24, 24); color: rgb(214, 214, 221); font-family: Menlo, Monaco, &amp;quot;Courier New&amp;quot;, monospace; white-space: pre;&quot;&gt;: &lt;/span&gt;&lt;span style=&quot;font-family: Menlo, Monaco, &amp;quot;Courier New&amp;quot;, monospace; white-space: pre; color: rgb(239, 176, 128);&quot;&gt;Dependency&lt;/span&gt;&lt;span style=&quot;background-color: rgb(24, 24, 24); color: rgb(214, 214, 221); font-family: Menlo, Monaco, &amp;quot;Courier New&amp;quot;, monospace; white-space: pre;&quot;&gt;, &lt;/span&gt;&lt;span style=&quot;color: rgb(214, 214, 221); font-family: Menlo, Monaco, &amp;quot;Courier New&amp;quot;, monospace; white-space: pre; font-style: italic;&quot;&gt;sub&lt;/span&gt;&lt;span style=&quot;background-color: rgb(24, 24, 24); color: rgb(214, 214, 221); font-family: Menlo, Monaco, &amp;quot;Courier New&amp;quot;, monospace; white-space: pre;&quot;&gt;: &lt;/span&gt;&lt;span style=&quot;font-family: Menlo, Monaco, &amp;quot;Courier New&amp;quot;, monospace; white-space: pre; color: rgb(239, 176, 128);&quot;&gt;Subscriber&lt;/span&gt;&lt;span style=&quot;background-color: rgb(24, 24, 24); color: rgb(214, 214, 221); font-family: Menlo, Monaco, &amp;quot;Courier New&amp;quot;, monospace; white-space: pre;&quot;&gt;): &lt;/span&gt;&lt;span style=&quot;font-family: Menlo, Monaco, &amp;quot;Courier New&amp;quot;, monospace; white-space: pre; color: rgb(239, 176, 128);&quot;&gt;Link&lt;/span&gt;&lt;/p&gt;&lt;br&gt;&amp;nbsp; +&amp;nbsp;&lt;span style=&quot;font-family: Menlo, Monaco, &amp;quot;Courier New&amp;quot;, monospace; white-space: pre; color: rgb(239, 176, 128); font-weight: bold;&quot;&gt;releaseDeps&lt;/span&gt;&lt;span style=&quot;background-color: rgb(24, 24, 24); color: rgb(214, 214, 221); font-family: Menlo, Monaco, &amp;quot;Courier New&amp;quot;, monospace; white-space: pre;&quot;&gt;(&lt;/span&gt;&lt;span style=&quot;color: rgb(214, 214, 221); font-family: Menlo, Monaco, &amp;quot;Courier New&amp;quot;, monospace; white-space: pre; font-style: italic;&quot;&gt;toBreak&lt;/span&gt;&lt;span style=&quot;background-color: rgb(24, 24, 24); color: rgb(214, 214, 221); font-family: Menlo, Monaco, &amp;quot;Courier New&amp;quot;, monospace; white-space: pre;&quot;&gt;: &lt;/span&gt;&lt;span style=&quot;font-family: Menlo, Monaco, &amp;quot;Courier New&amp;quot;, monospace; white-space: pre; color: rgb(239, 176, 128);&quot;&gt;Link&lt;/span&gt;&lt;span style=&quot;background-color: rgb(24, 24, 24); color: rgb(214, 214, 221); font-family: Menlo, Monaco, &amp;quot;Courier New&amp;quot;, monospace; white-space: pre;&quot;&gt;)&lt;/span&gt;&lt;/div&gt;&lt;br&gt;&amp;nbsp; +&amp;nbsp;&lt;span style=&quot;font-family: Menlo, Monaco, &amp;quot;Courier New&amp;quot;, monospace; white-space: pre; color: rgb(239, 176, 128); font-weight: bold;&quot;&gt;release&lt;/span&gt;&lt;span style=&quot;background-color: rgb(24, 24, 24); color: rgb(214, 214, 221); font-family: Menlo, Monaco, &amp;quot;Courier New&amp;quot;, monospace; white-space: pre;&quot;&gt;(&lt;/span&gt;&lt;span style=&quot;color: rgb(214, 214, 221); font-family: Menlo, Monaco, &amp;quot;Courier New&amp;quot;, monospace; white-space: pre; font-style: italic;&quot;&gt;link&lt;/span&gt;&lt;span style=&quot;background-color: rgb(24, 24, 24); color: rgb(214, 214, 221); font-family: Menlo, Monaco, &amp;quot;Courier New&amp;quot;, monospace; white-space: pre;&quot;&gt;: &lt;/span&gt;&lt;span style=&quot;font-family: Menlo, Monaco, &amp;quot;Courier New&amp;quot;, monospace; white-space: pre; color: rgb(239, 176, 128);&quot;&gt;Link&lt;/span&gt;&lt;span style=&quot;background-color: rgb(24, 24, 24); color: rgb(214, 214, 221); font-family: Menlo, Monaco, &amp;quot;Courier New&amp;quot;, monospace; white-space: pre;&quot;&gt;)&lt;/span&gt;" style="verticalAlign=top;align=left;overflow=fill;html=1;whiteSpace=wrap;" vertex="1" parent="1">
          <mxGeometry x="297" y="588" width="370" height="180" as="geometry" />
        </mxCell>
        <mxCell id="H9TVhaISFKtpRXAber_u-2" style="edgeStyle=orthogonalEdgeStyle;rounded=0;orthogonalLoop=1;jettySize=auto;html=1;exitX=0.5;exitY=1;exitDx=0;exitDy=0;" edge="1" parent="1" source="H9TVhaISFKtpRXAber_u-1" target="H9TVhaISFKtpRXAber_u-1">
          <mxGeometry relative="1" as="geometry" />
        </mxCell>
      </root>
    </mxGraphModel>
  </diagram>
</mxfile>
